HIERARCHY
ROOT SpineBase
{
  OFFSET 0.000000 0.000000 0.000000
  CHANNELS 6 Xposition Yposition Zposition Zrotation Xrotation Yrotation
  JOINT SpineMid
  {
    OFFSET 0.000000 12.154935 0.000000
    CHANNELS 3 Zrotation Xrotation Yrotation
    JOINT SpineShoulder
    {
      OFFSET -0.384417 8.889512 -0.411066
      CHANNELS 3 Zrotation Xrotation Yrotation
      JOINT Neck
      {
        OFFSET -0.158583 2.900334 -0.296159
        CHANNELS 3 Zrotation Xrotation Yrotation
        JOINT Head
        {
          OFFSET 0.596763 8.067712 2.696510
          CHANNELS 3 Zrotation Xrotation Yrotation
          End Site
          {
            OFFSET 0 0 0
          }
        }
      }
      JOINT ShoulderLeft
      {
        OFFSET -6.528801 2.217543 2.841776
        CHANNELS 3 Zrotation Xrotation Yrotation
        JOINT ElbowLeft
        {
          OFFSET -3.098000 -15.099879 0.454674
          CHANNELS 3 Zrotation Xrotation Yrotation
          JOINT WristLeft
          {
            OFFSET -0.884483 -9.726143 -5.972193
            CHANNELS 3 Zrotation Xrotation Yrotation
            JOINT HandLeft
            {
              OFFSET 2.759774 1.315336 -4.757135
              CHANNELS 3 Zrotation Xrotation Yrotation
              JOINT HandTipLeft
              {
                OFFSET -6.281916 -4.203846 -5.527191
                CHANNELS 3 Zrotation Xrotation Yrotation
                End Site
                {
                  OFFSET 0 0 0
                }
              }
              JOINT ThumbLeft
              {
                OFFSET -0.437072 0.364646 -1.034281
                CHANNELS 3 Zrotation Xrotation Yrotation
                End Site
                {
                  OFFSET 0 0 0
                }
              }
            }
          }
        }
      }
      JOINT ShoulderRight
      {
        OFFSET 5.243084 -2.629680 -5.271412
        CHANNELS 3 Zrotation Xrotation Yrotation
        JOINT ElbowRight
        {
          OFFSET -0.399721 -10.779561 -11.300995
          CHANNELS 3 Zrotation Xrotation Yrotation
          JOINT WristRight
          {
            OFFSET -3.139782 -7.477972 -13.482106
            CHANNELS 3 Zrotation Xrotation Yrotation
            JOINT HandRight
            {
              OFFSET -0.581600 1.737559 -5.027553
              CHANNELS 3 Zrotation Xrotation Yrotation
              JOINT HandTipRight
              {
                OFFSET 0.017550 -1.158497 -3.656310
                CHANNELS 3 Zrotation Xrotation Yrotation
                End Site
                {
                  OFFSET 0 0 0
                }
              }
              JOINT ThumbRight
              {
                OFFSET -1.733954 -2.293038 0.452346
                CHANNELS 3 Zrotation Xrotation Yrotation
                End Site
                {
                  OFFSET 0 0 0
                }
              }
            }
          }
        }
      }
    }
  }
  JOINT HipLeft
  {
    OFFSET -1.893356 0.709781 2.022027
    CHANNELS 3 Zrotation Xrotation Yrotation
    JOINT KneeLeft
    {
      OFFSET -16.553254 -4.844614 -18.823091
      CHANNELS 3 Zrotation Xrotation Yrotation
      JOINT AnkleLeft
      {
        OFFSET -25.428462 -1.695395 0.934754
        CHANNELS 3 Zrotation Xrotation Yrotation
        JOINT FootLeft
        {
          OFFSET -5.245088 -3.472745 -4.946655
          CHANNELS 3 Zrotation Xrotation Yrotation
          End Site
          {
            OFFSET 0 0 0
          }
        }
      }
    }
  }
  JOINT HipRight
  {
    OFFSET 0.200590 -1.118553 -5.341968
    CHANNELS 3 Zrotation Xrotation Yrotation
    JOINT KneeRight
    {
      OFFSET -13.376429 -4.045354 -21.877382
      CHANNELS 3 Zrotation Xrotation Yrotation
      JOINT AnkleRight
      {
        OFFSET -9.551758 -10.911475 1.450188
        CHANNELS 3 Zrotation Xrotation Yrotation
        JOINT FootRight
        {
          OFFSET -8.148043 3.194730 -0.384729
          CHANNELS 3 Zrotation Xrotation Yrotation
          End Site
          {
            OFFSET 0 0 0
          }
        }
      }
    }
  }
}
MOTION
Frames: 5
Frame Time: 0.033333
223.345789 16.075383 440.508289 -0.000000 0.000000 74.126944 -0.000000 0.000000 -74.126944 -0.000000 0.000000 0.000000 -0.000000 0.000000 0.000000 0.000000 0.000000 0.000000 -0.000000 0.000000 0.000000 -0.000000 0.000000 0.000000 -0.000000 0.000000 0.000000 -0.000000 0.000000 0.000000 0.000000 0.000000 0.000000 0.000000 0.000000 0.000000 -0.000000 0.000000 0.000000 -0.000000 0.000000 0.000000 -0.000000 0.000000 0.000000 -0.000000 0.000000 0.000000 0.000000 0.000000 0.000000 0.000000 0.000000 0.000000 -0.000000 0.000000 -74.126944 -0.000000 0.000000 0.000000 -0.000000 0.000000 0.000000 0.000000 0.000000 0.000000 -0.000000 0.000000 -74.126944 -0.000000 0.000000 0.000000 -0.000000 0.000000 0.000000 0.000000 0.000000 0.000000
223.728836 16.218282 440.616687 1.600726 -0.402075 68.970631 0.532456 1.079667 -68.922414 0.640448 0.792342 0.150947 -4.831904 -1.935200 0.860219 0.000000 0.000000 0.000000 1.062964 -1.820696 0.023278 -9.590847 3.174642 4.102345 5.928818 -4.568944 -3.867638 0.873079 1.529928 -0.068579 0.000000 0.000000 0.000000 0.000000 0.000000 0.000000 -0.044230 -2.176238 -1.622641 -2.298188 -0.259154 3.594709 1.606026 -6.389806 -1.962437 -1.609730 9.310962 2.108180 0.000000 0.000000 0.000000 0.000000 0.000000 0.000000 -0.199242 2.041303 -68.010714 0.627795 -0.018099 -2.933025 -0.845840 -0.705447 3.668842 0.000000 0.000000 0.000000 -0.839843 -0.098788 -72.815308 -11.296155 4.449133 -0.129571 16.230953 -4.208034 2.442930 0.000000 0.000000 0.000000
224.069804 16.302137 440.783622 2.922927 -0.907956 64.241716 0.745527 2.120143 -64.168979 1.089571 1.436792 0.248613 -8.462839 -3.357133 1.409083 0.000000 0.000000 0.000000 1.987040 -3.033965 0.110730 -17.024538 5.207200 7.518372 9.790835 -8.475106 -7.273226 1.509401 2.643397 1.355482 0.000000 0.000000 0.000000 0.000000 0.000000 0.000000 -0.091210 -4.009497 -2.727451 -3.929047 -0.135265 6.209222 2.462624 -11.208974 -3.421500 -2.998572 16.800337 4.251968 0.000000 0.000000 0.000000 0.000000 0.000000 0.000000 -0.511135 3.794009 -62.441188 0.875357 -0.099886 -4.877467 -1.648329 -1.018248 6.340432 0.000000 0.000000 0.000000 -1.522405 -0.379500 -71.566280 -20.587117 7.121580 1.012326 30.349326 -6.208361 4.598476 0.000000 0.000000 0.000000
224.368693 16.326947 441.009093 3.928929 -1.513542 60.614078 0.723257 3.021426 -60.521372 1.339255 1.921246 0.297980 -10.785374 -4.222471 1.761298 0.000000 0.000000 0.000000 2.778101 -3.616728 0.200118 -22.012408 6.326104 9.858078 11.841604 -10.975860 -10.637515 2.708824 3.883490 1.879105 0.000000 0.000000 0.000000 0.000000 0.000000 0.000000 -0.108140 -5.457243 -3.338150 -4.946955 0.438587 7.836702 2.862929 -14.535866 -4.386540 -4.074948 22.460492 5.960983 0.000000 0.000000 0.000000 0.000000 0.000000 0.000000 -0.752709 5.255250 -58.098361 0.753509 -0.214990 -5.928040 -2.475940 -0.899762 8.075104 0.000000 0.000000 0.000000 -1.983099 -0.775370 -71.009084 -28.034906 8.355834 2.694221 41.863212 -6.771216 6.156786 0.000000 0.000000 0.000000
224.625502 16.292714 441.293100 4.591288 -2.211483 58.650147 0.584039 3.718380 -58.533472 1.386319 2.239805 0.304794 -11.721144 -4.510168 1.987661 0.000000 0.000000 0.000000 3.437246 -3.560136 0.249369 -24.497424 6.761689 10.966488 12.689983 -11.424388 -14.148640 3.218114 4.233837 3.664946 0.000000 0.000000 0.000000 0.000000 0.000000 0.000000 -0.070905 -6.498567 -3.472926 -5.381752 1.502324 8.469127 3.004467 -16.548505 -4.833820 -4.650620 26.302417 6.726458 0.000000 0.000000 0.000000 0.000000 0.000000 0.000000 -0.712735 6.446358 -55.563695 0.249160 -0.355241 -6.116090 -3.323099 -0.305280 8.882371 0.000000 0.000000 0.000000 -2.196325 -1.211925 -71.682295 -33.906270 8.589402 4.468771 50.588774 -6.526248 7.232177 0.000000 0.000000 0.000000
